<svg xmlns="http://www.w3.org/2000/svg" width="110" height="110" fill="none" viewBox="0 0 110 110">
    <path fill="#E3B873" d="M20 15h70v70H20z" filter="url(#a)"/>
    <g fill="#fff" clip-path="url(#b)">
        <path d="M57.37 28c-8.99 0-16.305 7.314-16.305 16.305v2.674l-4.54 7.813a.645.645 0 0 0-.087.324v2.714c0 .356.288.645.644.645h3.983v4.338a3.496 3.496 0 0 0 3.492 3.492h1.311a.644.644 0 0 0 0-1.29h-1.311a2.205 2.205 0 0 1-2.203-2.202v-4.338h1.847a.645.645 0 0 0 .644-.645v-4.271a.645.645 0 0 0-.644-.645h-1.424a.645.645 0 1 0 0 1.29h.78v2.981h-5.83v-1.558h2.202a.645.645 0 0 0 0-1.289h-1.65l3.98-6.847a.643.643 0 0 0 .095-.338v-2.848c0-8.28 6.736-15.016 15.016-15.016 8.28 0 15.016 6.736 15.016 15.016V50c0 6.193-3.704 11.654-9.446 13.948h-1.655a.644.644 0 1 0 0 1.289h1.135v5.474H50.54v-4.406h1.49a.644.644 0 1 0 0-1.29h-3.58a.644.644 0 1 0 0 1.29h.8v5.05c0 .357.29.645.645.645h13.17a.644.644 0 0 0 .644-.644v-6.33a16.285 16.285 0 0 0 7.055-5.726 16.21 16.21 0 0 0 2.911-9.3v-5.695C73.675 35.315 66.361 28 57.37 28z"/>
        <path d="M48.885 43.593c0 1.74.523 3.411 1.513 4.834a8.463 8.463 0 0 0 3.47 2.89v1.33H53.8a.644.644 0 1 0 0 1.29h.067v1.758c0 .356.288.644.644.644h.068v1.491c0 .356.288.645.644.645h4.271a.645.645 0 0 0 .645-.645v-1.49h.067a.645.645 0 0 0 .645-.645v-1.758h.067a.645.645 0 1 0 0-1.29h-.067v-1.33a8.463 8.463 0 0 0 3.47-2.89 8.425 8.425 0 0 0 1.513-4.834c0-4.673-3.802-8.475-8.475-8.475s-8.475 3.802-8.475 8.475zm6.984 2.068h.512l1.235 1.236a.645.645 0 0 0 .912 0l.323-.324v3.672h-2.982v-4.584zm2.982 11.525h-2.982v-.847h2.982v.847zm.712-2.136h-4.406v-1.113h4.406v1.113zm-4.406-2.402v-1.114h4.406v1.114h-4.406zm2.203-16.24c3.962 0 7.185 3.223 7.185 7.185a7.142 7.142 0 0 1-4.405 6.627v-5.915a.645.645 0 0 0-1.29 0v.445l-.778.78-.968-.969a.645.645 0 0 0-.456-.188h-.78v-.068a.645.645 0 0 0-1.288 0v5.915a7.142 7.142 0 0 1-4.406-6.627c0-3.962 3.223-7.186 7.186-7.186zM58.004 33.627v-2.135a.644.644 0 1 0-1.289 0v2.135a.644.644 0 1 0 1.29 0zM49.196 34.606a.645.645 0 0 0-.912.912l1.51 1.51a.642.642 0 0 0 .912 0 .644.644 0 0 0 0-.911l-1.51-1.51zM47.305 43.038h-2.136a.645.645 0 0 0 0 1.289h2.136a.645.645 0 1 0 0-1.29zM49.794 50.336l-1.51 1.51a.644.644 0 1 0 .912.912l1.51-1.51a.645.645 0 0 0-.912-.912zM64.014 50.336a.644.644 0 0 0 0 .912l1.51 1.51a.643.643 0 0 0 .912 0 .645.645 0 0 0 0-.912l-1.51-1.51a.644.644 0 0 0-.912 0zM69.55 44.327a.644.644 0 1 0 0-1.29h-2.135a.644.644 0 1 0 0 1.29h2.135zM65.524 34.606l-1.51 1.51a.645.645 0 0 0 .911.912l1.51-1.51a.644.644 0 1 0-.911-.912z"/>
    </g>
    <defs>
        <filter id="a" width="110" height="110" x="0" y="0" color-interpolation-filters="sRGB" filterUnits="userSpaceOnUse">
            <feFlood flood-opacity="0" result="BackgroundImageFix"/>
            <feColorMatrix in="SourceAlpha" values="0 0 0 0 0 0 0 0 0 0 0 0 0 0 0 0 0 0 127 0"/>
            <feOffset dy="5"/>
            <feGaussianBlur stdDeviation="10"/>
            <feColorMatrix values="0 0 0 0 0.890196 0 0 0 0 0.721569 0 0 0 0 0.45098 0 0 0 0.5 0"/>
            <feBlend in2="BackgroundImageFix" result="effect1_dropShadow"/>
            <feBlend in="SourceGraphic" in2="effect1_dropShadow" result="shape"/>
        </filter>
        <clipPath id="b">
            <path fill="#fff" d="M0 0h44v44H0z" transform="translate(33 28)"/>
        </clipPath>
    </defs>
</svg>
