<svg xmlns="http://www.w3.org/2000/svg" width="110" height="110" fill="none" viewBox="0 0 110 110">
    <path fill="#E3B873" d="M20 15h70v70H20z" filter="url(#a)"/>
    <path fill="#fff" d="M77 42.182a3.496 3.496 0 0 0-3.492-3.492H69.17v-2.202a.644.644 0 0 0-.645-.645h-1.491v-3.626a.644.644 0 0 0-.645-.645h-5.05v-.779a.645.645 0 0 0-.644-.645h-11.39a.645.645 0 0 0-.645.645v.78h-5.05a.645.645 0 0 0-.644.644v3.626h-1.491a.645.645 0 0 0-.645.645v2.203h-4.338A3.496 3.496 0 0 0 33 42.181v8.543c0 .356.289.644.645.644h.778v15.016a3.496 3.496 0 0 0 3.492 3.492h34.17a3.496 3.496 0 0 0 3.491-3.492V51.37h.78a.645.645 0 0 0 .644-.644v-8.543zm-9.12-5.05v1.559H64.9v-1.559h2.982zm-17.93-5.694h10.1v1.558h-10.1v-1.559zm-7.83 5.694H45.1v1.559H42.12v-1.559zm32.167 29.253a2.205 2.205 0 0 1-2.203 2.203H37.915a2.205 2.205 0 0 1-2.203-2.203V51.37h4.406v1.559h-.78a.645.645 0 0 0-.644.644v2.847c0 .356.29.645.645.645h.779v2.203c0 .244.138.467.356.576l2.848 1.424a.64.64 0 0 0 .576 0l2.848-1.424a.644.644 0 0 0 .356-.576v-2.203h.779a.644.644 0 0 0 .645-.645v-2.847a.644.644 0 0 0-.645-.644h-.779v-1.559h4.406v2.915c0 .356.288.645.644.645h5.695a.645.645 0 0 0 .645-.645V51.37h4.406v1.559h-.78a.645.645 0 0 0-.644.644v2.847c0 .356.288.645.644.645h.78v2.203c0 .244.137.467.356.576l2.847 1.424a.64.64 0 0 0 .577 0l2.847-1.424a.644.644 0 0 0 .356-.576v-2.203h.78a.645.645 0 0 0 .644-.645v-2.847a.645.645 0 0 0-.645-.644h-.779v-1.559h4.406v15.016zm-32.88-15.659v-.001-2.203h4.406v4.406h-4.406v-2.202zm-1.423-3.493v-1.559h7.253v1.559h-7.253zm7.253 6.984v1.558h-7.253v-1.558h7.253zm-1.424 2.847v1.805L43.61 59.97l-2.203-1.101v-1.805h4.406zm8.542-5.695v.78a.644.644 0 1 0 1.29 0v-.78h1.558v2.27h-4.406v-2.27h1.559zm-1.558-1.289v-.846h4.406v.846h-4.406zm11.39.646v-.001-2.203h4.405v4.406h-4.405v-2.202zm-1.424-3.493v-1.559h7.253v1.559h-7.253zm7.253 6.984v1.558h-7.253v-1.558h7.253zm-1.424 2.847v1.805L66.39 59.97l-2.202-1.101v-1.805h4.405zm6.343-6.984h-.003-5.051v-1.558h.78a.645.645 0 0 0 .644-.645v-2.202h.067a.645.645 0 1 0 0-1.29h-9.965a.644.644 0 1 0 0 1.29h.067v2.202c0 .356.289.645.644.645h.78v1.558h-4.406v-1.49a.644.644 0 0 0-.645-.645h-5.695a.644.644 0 0 0-.644.644v1.491h-4.406v-1.558h.78a.645.645 0 0 0 .644-.645v-2.202h.067a.645.645 0 0 0 0-1.29h-9.966a.645.645 0 0 0 0 1.29h.068v2.202c0 .356.288.645.644.645h.78v1.558h-5.83v-7.898c0-1.214.988-2.202 2.203-2.202h12.101a.645.645 0 0 0 0-1.29H46.39v-2.202a.645.645 0 0 0-.644-.645h-1.491v-2.982h4.405v.78c0 .355.29.644.645.644h11.39a.645.645 0 0 0 .644-.645v-.779h4.406v2.982h-1.49a.645.645 0 0 0-.645.645v2.203H51.174a.645.645 0 0 0 0 1.289h22.333c1.215 0 2.203.988 2.203 2.202v7.898h-.776z"/>
    <path fill="#fff" d="M37.271 66.385c0 .356.288.645.645.645h34.168a.645.645 0 1 0 0-1.29H37.916a.645.645 0 0 0-.645.645z"/>
    <defs>
        <filter id="a" width="110" height="110" x="0" y="0" color-interpolation-filters="sRGB" filterUnits="userSpaceOnUse">
            <feFlood flood-opacity="0" result="BackgroundImageFix"/>
            <feColorMatrix in="SourceAlpha" values="0 0 0 0 0 0 0 0 0 0 0 0 0 0 0 0 0 0 127 0"/>
            <feOffset dy="5"/>
            <feGaussianBlur stdDeviation="10"/>
            <feColorMatrix values="0 0 0 0 0.890196 0 0 0 0 0.721569 0 0 0 0 0.45098 0 0 0 0.5 0"/>
            <feBlend in2="BackgroundImageFix" result="effect1_dropShadow"/>
            <feBlend in="SourceGraphic" in2="effect1_dropShadow" result="shape"/>
        </filter>
    </defs>
</svg>
