<svg xmlns="http://www.w3.org/2000/svg" width="152" height="57" fill="none" viewBox="0 0 152 57">
    <path fill="#E3B873" d="M9.186 19.724c-2.882 0-5.133-.855-6.754-2.567C.81 15.447 0 13.014 0 9.862 0 7.791.351 6.016 1.054 4.54c.72-1.495 1.72-2.62 2.999-3.377C5.35.387 6.845 0 8.538 0c1.027 0 2.062.297 3.107.892.396.216.793.504 1.189.864.306-.468.622-.837.946-1.107.324-.235.504-.36.54-.379h.675v5.134h-1.08a7.95 7.95 0 0 0-1.054-2.35A5.851 5.851 0 0 0 11.24 1.35C10.61.901 9.88.676 9.05.676c-1.243 0-2.278.72-3.107 2.161-.81 1.441-1.216 3.783-1.216 7.025 0 3.296.442 5.656 1.324 7.08.9 1.404 2.126 2.107 3.675 2.107.846 0 1.648-.235 2.405-.703a5.588 5.588 0 0 0 1.864-1.918c.486-.793.73-1.63.73-2.513h.675c0 1.027-.28 1.99-.838 2.891-.54.883-1.288 1.594-2.242 2.134-.937.523-1.982.784-3.135.784zm14.749 0c-1.765 0-3.314-.378-4.647-1.135-1.315-.774-2.333-1.9-3.053-3.377-.72-1.477-1.081-3.26-1.081-5.35s.36-3.873 1.08-5.35c.721-1.477 1.739-2.593 3.054-3.35C20.62.387 22.17 0 23.935 0c1.765 0 3.305.387 4.62 1.162 1.333.757 2.36 1.873 3.08 3.35.721 1.477 1.081 3.26 1.081 5.35s-.36 3.873-1.08 5.35c-.721 1.477-1.748 2.603-3.08 3.377-1.316.757-2.856 1.135-4.621 1.135zm0-.54c.703 0 1.351-.297 1.945-.892.613-.594 1.117-1.585 1.514-2.972.396-1.387.594-3.206.594-5.458 0-2.251-.198-4.07-.595-5.458-.396-1.387-.9-2.377-1.513-2.972-.594-.594-1.242-.891-1.945-.891-.702 0-1.36.297-1.972.891-.595.595-1.09 1.585-1.486 2.972-.397 1.387-.595 3.207-.595 5.458 0 2.252.198 4.071.595 5.458.396 1.387.891 2.378 1.486 2.972.612.595 1.27.892 1.972.892zM35.83 3.783v14.32l2.161.81v.406h-5.133v-.405l2.161-.811V1.216L33.398.811V.405h3.377c.937 0 1.676.199 2.216.595.558.378 1.036.946 1.432 1.702l5.89 11.267 4.512-11.267c.306-.792.72-1.369 1.243-1.73.523-.377 1.324-.567 2.405-.567h2.837v.406l-1.621.405v17.292l1.62.405v.406h-7.7v-.405l1.622-.406V3.783l-6.35 15.806h-.81L35.83 3.783zm22.036 15.13l1.621-.405V1.216l-1.62-.405V.405h7.564c2.99 0 5.134.496 6.43 1.487 1.298.972 1.946 2.413 1.946 4.323 0 1.909-.648 3.359-1.945 4.35-1.297.972-3.44 1.459-6.43 1.459h-1.487v6.484l1.622.405v.406h-7.7v-.405zm7.565-7.565c1.135 0 2.045-.432 2.73-1.297.702-.864 1.053-2.143 1.053-3.836 0-1.676-.351-2.946-1.054-3.81-.684-.883-1.594-1.324-2.729-1.324h-1.486v10.267h1.486zm8.776 7.565l1.622-.405V1.216L74.207.811V.405h7.7v.406l-1.62.405v17.427h5.809c0-1.134.288-2.188.864-3.16a3.82 3.82 0 0 1 .892-1.028h.81v4.864H74.207v-.405zm14.6 0l1.621-.405V1.216l-1.62-.405V.405h14.454V5.27h-.81a3.806 3.806 0 0 1-.892-1.027 6.096 6.096 0 0 1-.865-3.161h-5.809v8.51h3.108a5.99 5.99 0 0 1 .702-1.917c.144-.27.315-.532.513-.784h.811v6.08h-.81a5.329 5.329 0 0 1-.514-.784 5.99 5.99 0 0 1-.702-1.919h-3.108v8.376h6.35c0-1.134.288-2.188.864-3.16a3.84 3.84 0 0 1 .892-1.028h.811v4.864H88.807v-.405zm18.901 0l1.621-.405V1.081h-3.107c0 1.099-.297 2.152-.892 3.161-.252.414-.54.757-.865 1.027h-.81V.405h15.806V5.27h-.811a3.82 3.82 0 0 1-.891-1.027 6.087 6.087 0 0 1-.865-3.161h-3.107v17.427l1.621.405v.406h-7.7v-.405zm11.882 0l1.621-.405V1.216L119.59.811V.405h14.455V5.27h-.811a3.82 3.82 0 0 1-.891-1.027 6.087 6.087 0 0 1-.865-3.161h-5.809v8.51h3.107a5.995 5.995 0 0 1 .703-1.917c.144-.27.315-.532.513-.784h.811v6.08h-.811a5.327 5.327 0 0 1-.513-.784 5.996 5.996 0 0 1-.703-1.919h-3.107v8.376h6.35c0-1.134.288-2.188.864-3.16.252-.415.55-.758.892-1.028h.81v4.864H119.59v-.405zm15.523 0l1.621-.405V1.216l-1.621-.405V.405h6.89c3.224 0 5.692.829 7.403 2.486C151.135 4.548 152 6.872 152 9.862s-.865 5.314-2.594 6.971c-1.711 1.657-4.179 2.486-7.403 2.486h-6.89v-.405zm6.89-.27c1.675 0 2.972-.675 3.891-2.026.918-1.37 1.378-3.62 1.378-6.755 0-3.134-.46-5.377-1.378-6.728-.919-1.369-2.216-2.053-3.891-2.053h-.811v17.562h.811zM.135 55.94l1.621-.406V38.242l-1.62-.405v-.406H7.7c2.99 0 5.134.496 6.43 1.487 1.298.972 1.946 2.413 1.946 4.323 0 1.909-.648 3.359-1.945 4.35-1.297.972-3.44 1.459-6.43 1.459H6.213v6.484l1.621.406v.405h-7.7v-.405zM7.7 48.374c1.135 0 2.045-.432 2.73-1.297.702-.864 1.053-2.143 1.053-3.836 0-1.675-.351-2.945-1.054-3.81-.684-.883-1.594-1.324-2.729-1.324H6.214v10.267H7.7zm8.776 7.566l1.621-.406V38.242l-1.62-.405v-.406h7.16c3.061 0 5.268.469 6.619 1.406 1.351.918 2.026 2.206 2.026 3.863 0 1.117-.297 2.027-.891 2.73-.595.684-1.36 1.197-2.297 1.54a9.21 9.21 0 0 1-3.161.594v.135c.666.036 1.252.135 1.756.297 1.261.396 2.117 1.108 2.567 2.134l2.432 5.404 1.35.406v.405h-3.782c-1.477 0-2.558-.766-3.242-2.297l-2.702-6.079h-1.756v7.565l1.89.406v.405h-7.97v-.405zm7.16-8.646c1.261 0 2.252-.397 2.972-1.19.721-.792 1.081-1.927 1.081-3.404 0-1.477-.36-2.612-1.08-3.404-.721-.793-1.712-1.189-2.973-1.189h-1.08v9.187h1.08zm18.25 9.456c-1.765 0-3.315-.378-4.648-1.135-1.314-.774-2.332-1.9-3.053-3.377-.72-1.477-1.08-3.26-1.08-5.35s.36-3.872 1.08-5.35c.72-1.477 1.739-2.593 3.053-3.35 1.334-.775 2.883-1.162 4.648-1.162 1.765 0 3.305.387 4.62 1.162 1.333.757 2.36 1.873 3.08 3.35.72 1.478 1.081 3.26 1.081 5.35s-.36 3.873-1.08 5.35c-.721 1.477-1.748 2.603-3.08 3.377-1.316.757-2.856 1.135-4.621 1.135zm0-.54c.702 0 1.35-.297 1.945-.892.613-.594 1.117-1.585 1.513-2.972.396-1.387.595-3.206.595-5.458 0-2.251-.199-4.07-.595-5.458-.396-1.387-.9-2.377-1.513-2.972-.594-.594-1.243-.891-1.945-.891-.703 0-1.36.297-1.973.891-.594.595-1.09 1.585-1.486 2.972-.396 1.387-.594 3.207-.594 5.458 0 2.252.198 4.071.594 5.458.397 1.387.892 2.378 1.486 2.972.613.595 1.27.892 1.973.892zm12.583.54c-1.657 0-2.91-.288-3.756-.864-.829-.577-1.243-1.28-1.243-2.108 0-.612.18-1.099.54-1.459.379-.378.874-.567 1.487-.567.144 0 .288.018.432.054.144.018.243.027.297.027l.351.054v4.053c.126.072.253.117.379.135.306.09.63.135.972.135 2.162 0 3.243-1.757 3.243-5.269V38.242l-1.622-.405v-.406h7.7v.406l-1.62.405v12.7c0 1.872-.586 3.313-1.756 4.322-1.171.99-2.973 1.486-5.404 1.486zm9.316-.81l1.621-.406V38.242l-1.621-.405v-.406H78.24v4.864h-.81a3.821 3.821 0 0 1-.892-1.027 6.092 6.092 0 0 1-.865-3.161h-5.809v8.511h3.107c.126-.684.36-1.324.703-1.918.144-.27.315-.532.513-.784h.81v6.08h-.81a5.317 5.317 0 0 1-.513-.784 5.991 5.991 0 0 1-.703-1.919h-3.107v8.376h6.35c0-1.134.288-2.188.864-3.16.252-.415.55-.757.892-1.028h.81v4.864H63.786v-.405zm24.31.81c-2.881 0-5.133-.855-6.754-2.567-1.621-1.71-2.432-4.143-2.432-7.295 0-2.071.351-3.846 1.054-5.322.72-1.496 1.72-2.621 3-3.378 1.296-.775 2.791-1.162 4.484-1.162 1.027 0 2.063.297 3.108.892.396.216.792.504 1.188.864.306-.468.622-.837.946-1.107.324-.234.504-.36.54-.379h.676v5.134h-1.08a7.95 7.95 0 0 0-1.055-2.35 5.851 5.851 0 0 0-1.62-1.703c-.631-.45-1.36-.675-2.19-.675-1.242 0-2.278.72-3.106 2.161-.811 1.441-1.216 3.783-1.216 7.025 0 3.297.44 5.656 1.323 7.08.901 1.404 2.126 2.107 3.675 2.107.847 0 1.648-.235 2.405-.703a5.59 5.59 0 0 0 1.864-1.918c.486-.793.73-1.63.73-2.513h.675c0 1.027-.28 1.99-.838 2.891-.54.883-1.287 1.594-2.242 2.135-.937.522-1.981.783-3.134.783zm9.48-.81l1.622-.406V38.107H96.09c0 1.099-.298 2.153-.892 3.161a4.08 4.08 0 0 1-.865 1.027h-.81v-4.864h15.806v4.864h-.811a3.82 3.82 0 0 1-.891-1.027 6.086 6.086 0 0 1-.865-3.161h-3.107v17.427l1.621.406v.405h-7.7v-.405zm18.502.81a7.72 7.72 0 0 1-3.593-.864 4.816 4.816 0 0 1-1.27-.892 4.612 4.612 0 0 1-.946 1.108c-.324.234-.504.36-.54.378h-.676v-5.134h1.081c.27.883.649 1.676 1.135 2.378 1.099 1.567 2.522 2.35 4.269 2.35 1.027 0 1.846-.305 2.459-.918.612-.612.918-1.432.918-2.459 0-.594-.18-1.126-.54-1.594a5.345 5.345 0 0 0-1.297-1.243c-.522-.36-1.252-.81-2.189-1.35-1.188-.667-2.152-1.27-2.891-1.81a7.545 7.545 0 0 1-1.891-2.027c-.522-.829-.783-1.802-.783-2.918 0-.883.243-1.676.729-2.378.504-.72 1.252-1.288 2.243-1.702.99-.433 2.206-.649 3.647-.649 1.045 0 2.09.297 3.134.892.397.216.793.504 1.189.864.306-.468.622-.837.946-1.107.324-.234.504-.36.54-.379h.676v5.134h-1.081a7.93 7.93 0 0 0-1.054-2.35 5.84 5.84 0 0 0-1.621-1.703c-.63-.45-1.36-.675-2.188-.675-.703 0-1.306.279-1.811.837-.504.559-.756 1.27-.756 2.135 0 .666.189 1.27.567 1.81.396.523.874.982 1.432 1.378.577.396 1.351.874 2.324 1.432 1.135.649 2.053 1.225 2.756 1.73a6.883 6.883 0 0 1 1.783 1.89c.486.74.73 1.595.73 2.567 0 .973-.28 1.865-.838 2.675-.558.793-1.396 1.423-2.513 1.892-1.117.468-2.477.702-4.08.702z"/>
</svg>
