<svg xmlns="http://www.w3.org/2000/svg" width="114" height="29" fill="none" viewBox="0 0 114 29">
    <rect width="32" height="1.543" y="13.1" fill="#E3B873" rx=".772"/>
    <rect width="32" height="1.543" x="82" y="13.1" fill="#E3B873" rx=".772"/>
    <path fill="#E3B873" d="M62.425 8.66L57.58 7.206a3.426 3.426 0 0 0-1.108-.133V7.06h-5.89L40.14 3.59l.032 14.675 2.998 1.498 1.775-4.34 2.593 1.038.672-1.68.974.974-.909.908a1.695 1.695 0 0 0 1.14 2.89 1.693 1.693 0 0 0 1.63 1.63 1.692 1.692 0 0 0 1.63 1.63 1.695 1.695 0 0 0 1.69 1.636c.447 0 .884-.18 1.2-.497l.908-.908.365.365a1.695 1.695 0 0 0 2.89-1.14 1.693 1.693 0 0 0 1.63-1.63 1.693 1.693 0 0 0 1.63-1.63 1.695 1.695 0 0 0 1.636-1.69c0-.077-.013-.153-.023-.23l.78-.78.63 1.261 3.413-1.707 2.063 3.939 2.375-1.583V4.174L62.425 8.66zm-19.82 9.607l-1.349-.675-.027-12.495 5.955 1.98-4.578 11.19zm4.327-3.219l-1.577-.63 2.862-6.998 1.558.518-2.843 7.11zm1.932 2.815c0-.16.065-.317.178-.431l.956-.956a.61.61 0 0 1 .862.862l-.956.956a.61.61 0 0 1-1.04-.43zm1.63 1.63c0-.16.065-.317.179-.431l.955-.955a.61.61 0 0 1 .862.862l-.955.955a.61.61 0 0 1-1.04-.43zm1.63 1.63c0-.16.065-.317.179-.431l.955-.955a.61.61 0 0 1 .862.862l-.955.955a.61.61 0 0 1-1.04-.43zm3.626 1.106l-.955.955a.61.61 0 0 1-.862-.862l.956-.955a.61.61 0 0 1 .862.862zm7.177-4.3a.613.613 0 0 1-.43-.179l-4.554-4.553-.768.768 4.553 4.553a.61.61 0 0 1-.862.862l-4.553-4.553-.769.768 4.553 4.554a.61.61 0 0 1-.862.862l-4.552-4.554-.769.769 4.553 4.553a.61.61 0 0 1-.862.862l-.612-.613c.01-.076.022-.152.022-.23 0-.915-.729-1.658-1.636-1.69a1.693 1.693 0 0 0-1.63-1.63 1.693 1.693 0 0 0-1.63-1.63 1.695 1.695 0 0 0-1.69-1.637c-.077 0-.154.013-.23.023l-1.551-1.551 2.214-5.536h3.211l-1.995 1.996a1.698 1.698 0 0 0 2.398 2.398l1.44-1.44a.836.836 0 0 1 1.12-.024l1.27 1.165c.423.387.892.708 1.394.96l3.658 3.686a.61.61 0 0 1-.43 1.04zm1.153-1.856l-2.234-2.25c.2.018.4.03.603.03v-1.087a5.031 5.031 0 0 1-3.408-1.326l-1.27-1.164c-.718-.658-1.934-.632-2.623.057l-1.44 1.44a.61.61 0 0 1-.863-.862L54.92 8.84a2.38 2.38 0 0 1 2.35-.593l4.8 1.44 2.799 5.599-.787.787zm2.416.04L63.2 9.522l2.407-.944 3.31 6.322-2.422 1.211zm6.278 1.525l-.886.59L66.625 8.18l6.149-2.412v11.87z"/>
    <circle cx="59.666" cy=".801" r=".486" fill="#E3B873"/>
    <circle cx="47.409" cy="23.73" r=".486" fill="#E3B873"/>
    <circle cx="49.467" cy="25.419" r=".486" fill="#E3B873"/>
    <circle cx="51.816" cy="26.657" r=".486" fill="#E3B873"/>
    <circle cx="54.365" cy="27.45" r=".486" fill="#E3B873"/>
    <circle cx="62.214" cy="1.574" r=".486" fill="#E3B873"/>
    <circle cx="64.563" cy="2.828" r=".486" fill="#E3B873"/>
    <path stroke="#E3B873" stroke-linecap="round" stroke-linejoin="round" d="M66.83 2.126v2.802h-2.834M45.01 23.414v-2.267h2.264"/>
    <path stroke="#E3B873" stroke-linecap="round" d="M47.8 4.11c1.535-1.336 2.512-1.95 4.351-2.67C54.103.68 55.423.5 57.543.5M68.404 21.598c-1.141 1.78-3.267 3.518-4.996 4.473-1.834 1.012-3.798 1.583-6.416 1.72"/>
</svg>
