<svg xmlns="http://www.w3.org/2000/svg" width="114" height="28" fill="none" viewBox="0 0 114 28">
    <rect width="32" height="1.543" y="13" fill="#E3B873" rx=".772"/>
    <rect width="32" height="1.543" x="82" y="13" fill="#E3B873" rx=".772"/>
    <path fill="#E3B873" d="M67.405 21.143a3.687 3.687 0 0 0-1.93-.665c-2.556-1.673-4.23-2.929-5.206-3.906l-3.002-3.001 1.821-2.04c.346.196.716.324 1.087.377.28.047.467.047.653.047.373 0 .467 0 .84.326a.752.752 0 0 0-.28.606c0 .234.093.513.28.7L63.3 15.22c.233.28.607.42.98.42s.746-.14.98-.467l3.311-3.312c.28-.233.42-.606.42-.98 0-.372-.14-.699-.42-.979L66.938 8.27a.92.92 0 0 0-.653-.28c-.233 0-.466.14-.653.28-.373-.327-.373-.42-.373-.793 0-.187 0-.42-.093-.7a3.266 3.266 0 0 0-.933-1.819l-1.68-1.68c-.979-.979-1.445-1.445-2.704-2.005-2.706-1.26-5.458-1.026-9.469.793-.233.094-.327.28-.28.513a.454.454 0 0 0 .467.374h.606c2.052 0 3.125 0 4.99 1.865.818.817.841 2.07.11 2.991a.427.427 0 0 0-.25.134l-2.071 2.313-1.566-1.566c-1.722-1.722-2.933-3.35-3.864-5.164a3.694 3.694 0 0 0-1.08-2.44C46.648.295 45.529-.078 44.41.015c-.14.047-.28.14-.327.233a.424.424 0 0 0 0 .467l1.306 2.332c-.28.606-.933.98-1.586.933l-1.352-2.24c-.047-.14-.233-.232-.373-.232-.14-.047-.28.046-.374.186a3.674 3.674 0 0 0 .98 5.084c.578.413 1.23.643 1.89.69l.022.01c1.82.933 3.452 2.145 5.178 3.871l1.706 1.667-9.915 11.067c-.374.373-.56.886-.56 1.4 0 .512.186.979.56 1.352l.653.653c.373.326.84.513 1.305.513.467 0 .98-.187 1.353-.56l9.904-11.085 2.876 2.876c.979.979 2.237 2.702 3.914 5.217.06.898.427 1.736 1.077 2.386.7.7 1.633 1.073 2.612 1.073h.373c.14 0 .28-.094.374-.233a.424.424 0 0 0 0-.467l-1.353-2.285c.326-.607.933-.98 1.632-.933l1.306 2.238c.047.14.234.234.374.234.186-.047.326-.093.42-.233 1.119-1.68.652-3.919-.98-5.085zM56.77 4.072C55.278 2.626 54.158 2.16 52.9 2.02c2.658-.84 4.617-.793 6.576.093 1.12.466 1.493.84 2.473 1.82l1.679 1.678c.373.373.606.84.653 1.306.046.233.046.42.046.56 0 .513.047.886.607 1.446.186.186.466.28.7.28.28 0 .513-.094.652-.28l1.633 1.632c.093.094.14.187.14.327s-.047.233-.14.326l-3.312 3.312a.45.45 0 0 1-.653 0l-1.632-1.633c.186-.14.28-.373.233-.652 0-.234-.093-.514-.28-.7-.56-.56-.933-.607-1.446-.607-.14 0-.326 0-.56-.046-.513-.047-.932-.28-1.306-.653l-2.005-2.006c1.026-1.26.933-3.032-.187-4.151zm-14.646-1.12l.98 1.68c.093.14.233.233.373.233h.233c1.073.047 2.053-.513 2.519-1.446l.093-.233a.35.35 0 0 0 0-.42L45.296.994c.56.093 1.073.373 1.493.792.48.521.788 1.18.807 1.888a.48.48 0 0 0-.014.118c0 .216-.027.427-.075.63a2.86 2.86 0 0 1-1.185 1.656 2.822 2.822 0 0 1-3.125-.047 2.84 2.84 0 0 1-1.073-3.078zm8.303 7.743c-1.4-1.446-2.799-2.565-4.291-3.451.233-.094.513-.234.746-.373a3.674 3.674 0 0 0 1.446-1.82c.886 1.493 2.005 2.892 3.405 4.292l1.602 1.602-1.257 1.402-1.651-1.652zm-6.204 16.046c-.373.373-.98.42-1.352.046l-.654-.606a.92.92 0 0 1-.28-.653c0-.28.094-.513.327-.746l.264-.296.669.669c.093.093.187.14.326.14.14 0 .234-.047.327-.14a.451.451 0 0 0 0-.653l-.705-.706.616-.69.742.743c.093.093.187.14.327.14s.233-.047.326-.14a.451.451 0 0 0 0-.653l-.779-.779L56.375 8.994l1.959 1.96-1.925 2.153a.48.48 0 0 0-.152.107l-1.866 2.099a.479.479 0 0 0-.113.178l-10.055 11.25zm11.195-11.1l1.277-1.43 3.014 3.014c.84.887 2.285 2.006 4.384 3.405-.28.094-.56.233-.84.42-.578.362-.988.864-1.274 1.42l-.012.023a3.908 3.908 0 0 0-.157.345l-.006.015c-.015.036-.03.073-.043.11-.265-.39-.52-.756-.765-1.101l.625-.625a.451.451 0 0 0 0-.653.45.45 0 0 0-.653 0l-.52.52a39.186 39.186 0 0 0-.562-.745l.43-.428a.451.451 0 0 0 0-.653.451.451 0 0 0-.654 0l-.356.356a15.494 15.494 0 0 0-.95-1.056l-2.938-2.938zm12.5 9.327l-.98-1.679c-.093-.14-.233-.233-.373-.233h-.233c-1.073-.094-2.052.513-2.519 1.446l-.093.233a.35.35 0 0 0 0 .42l1.026 1.772a2.756 2.756 0 0 1-1.492-.793c-.472-.51-.777-1.155-.806-1.847a.484.484 0 0 0 .013-.112 2.805 2.805 0 0 1 1.259-2.332c.466-.326.98-.466 1.54-.466.559 0 1.119.186 1.585.513.98.7 1.4 1.959 1.073 3.078z"/>
</svg>
