<svg xmlns="http://www.w3.org/2000/svg" width="20" height="174" fill="none" viewBox="0 0 20 174">
    <path fill="#E3B873" d="M15.338 32.729v1.82H6v-1.82h9.338zM6 38.5v-1.82h9.548v1.26l-6.496 5.684h6.286v1.82h-9.52v-1.26l6.496-5.684H6zm8.456 14.62l-1.246-.951c.532-.402.798-.91.798-1.526 0-.448-.112-.775-.336-.98a1.059 1.059 0 0 0-.756-.308.796.796 0 0 0-.63.294c-.14.149-.317.522-.532 1.12-.317.924-.63 1.554-.938 1.89-.476.532-1.13.798-1.96.798-.915 0-1.657-.304-2.226-.91-.56-.598-.84-1.377-.84-2.338 0-1.344.588-2.418 1.764-3.22l1.134 1.19c-.42.205-.733.49-.938.854a2.23 2.23 0 0 0-.308 1.106c0 .42.117.765.35 1.036.243.27.555.406.938.406.327 0 .607-.122.84-.364.205-.224.434-.705.686-1.442.233-.691.504-1.209.812-1.554.43-.495 1.008-.742 1.736-.742.756 0 1.4.256 1.932.77.541.513.812 1.255.812 2.226 0 1.054-.364 1.936-1.092 2.646zm-.686 6.975v-2.1H6v-1.82h7.77v-2.1h1.568v6.02H13.77zM6 67.058l1.96-.826v-3.766L6 61.64v-1.974l9.534 4.046v1.372L6 69.018v-1.96zm3.444-4.018v2.66l3.36-1.316-3.36-1.344zM9.43 74.813h1.568v4.284h-.238c-1.279 0-2.329-.285-3.15-.854-1.213-.84-1.82-2.077-1.82-3.71 0-1.447.448-2.628 1.344-3.542.905-.906 2.081-1.358 3.528-1.358s2.623.462 3.528 1.386c.905.933 1.358 2.123 1.358 3.57a5.29 5.29 0 0 1-.252 1.68c-.168.504-.392.914-.672 1.232-.28.317-.513.55-.7.7-.177.149-.369.28-.574.392l-.854-1.582c.121-.075.243-.164.364-.266.13-.094.28-.238.448-.434.177-.196.317-.448.42-.756a2.77 2.77 0 0 0 .168-.98c0-.906-.317-1.643-.952-2.212-.625-.57-1.395-.854-2.31-.854-.83 0-1.573.256-2.226.77-.644.513-.966 1.274-.966 2.282 0 .7.163 1.292.49 1.778.327.494.826.788 1.498.882v-2.408zm5.908 5.959v2.702c0 1.027-.233 1.82-.7 2.38-.523.616-1.223.924-2.1.924-.97 0-1.703-.364-2.198-1.092a2.583 2.583 0 0 1-.406-1.022L6 87.576v-2.268l3.752-2.492v-.224H6v-1.82h9.338zm-1.484 1.82H11.04v.518c0 .15.01.294.028.434.028.15.08.34.154.574.084.233.229.42.434.56.215.15.48.224.798.224.317 0 .579-.07.784-.21.215-.14.36-.327.434-.56.084-.233.135-.42.154-.56.019-.14.028-.285.028-.434v-.546zM6 95.167l1.96-.826v-3.766L6 89.75v-1.974l9.534 4.046v1.372L6 97.127v-1.96zm3.444-4.018v2.66l3.36-1.316-3.36-1.344zM6 97.741l9.506 1.736v1.26l-6.104 2.534 6.104 2.646v1.26L6 108.745v-1.848l5.754-.84-5.88-2.562v-.504l5.88-2.45L6 99.589v-1.848z"/>
    <path stroke="#E3B873" stroke-width="1.5" d="M10 123v51"/>
</svg>
