<svg xmlns="http://www.w3.org/2000/svg" width="114" height="29" fill="none" viewBox="0 0 114 29">
    <rect width="32" height="1.543" y="13.472" fill="#E3B873" rx=".772"/>
    <rect width="32" height="1.543" x="82" y="13.472" fill="#E3B873" rx=".772"/>
    <g clip-path="url(#a)">
        <path fill="#E3B873" d="M56.5 9.355a3.278 3.278 0 0 0 3.274-3.274 3.278 3.278 0 0 0-3.275-3.275 3.278 3.278 0 0 0-3.274 3.275A3.278 3.278 0 0 0 56.5 9.355zm0-5.613c1.289 0 2.338 1.05 2.338 2.339 0 1.129-.805 2.074-1.87 2.291V6.548h-.936v1.824a2.343 2.343 0 0 1-1.871-2.291c0-1.29 1.049-2.34 2.338-2.34z"/>
        <path fill="#E3B873" d="M56.032 5.145a.468.468 0 1 1 .935 0 .468.468 0 0 1-.935 0z"/>
        <path stroke="#E3B873" stroke-linecap="round" d="M56.5 6.698v1.75"/>
        <path fill="#E3B873" d="M69.168 22.137l-2.378-.528v-.684a3.27 3.27 0 0 0 1.403-2.683v-.935a3.276 3.276 0 0 0-2.806-3.237v-2.225l-4.323-1.73.668-.667-.669-1.001c.135-.26.248-.531.336-.81L62.58 7.4V4.762l-1.18-.237a5.134 5.134 0 0 0-.336-.81l.668-1.002L59.867.848l-1.002.669a5.093 5.093 0 0 0-.81-.336L57.818 0H55.18l-.236 1.18c-.28.089-.55.202-.81.336L53.132.848l-1.865 1.865.668 1.002c-.135.26-.247.53-.335.81l-1.181.237V7.4l1.18.236c.089.28.202.55.336.81l-.668 1.002.667.667-4.322 1.73v2.225a3.276 3.276 0 0 0-2.806 3.236v.936c0 1.11.556 2.09 1.403 2.683v.683l-2.378.529A2.325 2.325 0 0 0 42 24.42V29h29v-4.58a2.324 2.324 0 0 0-1.831-2.283zm-3.314-.282c-.116.18-.438.597-.935.597-.498 0-.82-.418-.936-.597v-.476a3.269 3.269 0 0 0 1.871 0v.476zm1.403-4.549v.936c0 1.29-1.049 2.339-2.338 2.339a2.341 2.341 0 0 1-2.339-2.34v-.934c0-1.29 1.05-2.34 2.339-2.34 1.29 0 2.338 1.05 2.338 2.34zm-2.806-4.828v1.592a3.276 3.276 0 0 0-2.806 3.236v.936c0 1.11.556 2.09 1.403 2.683v.683l-2.339.52-2.339-.52v-.683a3.27 3.27 0 0 0 1.404-2.683v-.936a3.276 3.276 0 0 0-2.807-3.236V12.16h.851l.237-1.18c.28-.089.55-.201.81-.336l1.002.668.477-.477 4.107 1.642zm-2.806 15.586h-10.29V24.42c0-.663.451-1.226 1.098-1.37l2.429-.54c.267.354.8.877 1.617.877.819 0 1.35-.523 1.618-.877l2.429.54a1.395 1.395 0 0 1 1.099 1.37v3.644zm-5.146-13.096c1.29 0 2.34 1.049 2.34 2.338v.936c0 1.29-1.05 2.339-2.34 2.339a2.341 2.341 0 0 1-2.338-2.34v-.934c0-1.29 1.049-2.34 2.338-2.34zm0 6.548c.325 0 .64-.049.936-.138v.477c-.116.18-.438.597-.936.597-.497 0-.82-.418-.935-.597v-.476c.296.088.61.137.935.137zM51.354 6.633V5.529l.997-.2.073-.285c.1-.392.254-.766.46-1.111l.15-.254-.564-.846.781-.78.847.564.253-.152a4.17 4.17 0 0 1 1.111-.46l.285-.072.2-.998h1.104l.2.998.285.072c.392.1.766.255 1.111.46l.254.151.846-.564.781.78-.565.847.152.253c.205.346.36.72.46 1.111l.072.286.998.2v1.104l-.998.2-.072.285c-.1.392-.255.765-.46 1.11l-.15.254.563.847-.78.78-.847-.564-.253.15a4.17 4.17 0 0 1-1.111.46l-.285.073-.2.998h-1.105l-.2-.997-.285-.073a4.184 4.184 0 0 1-1.11-.46l-.254-.15-.846.564-.781-.781.564-.847-.15-.253a4.17 4.17 0 0 1-.46-1.111l-.073-.285-.998-.2zm1.3 4.202l.478.478 1.002-.668c.26.135.53.247.81.335l.236 1.181h.852v1.909a3.276 3.276 0 0 0-2.807 3.236v.936c0 1.11.556 2.09 1.403 2.683v.683l-2.338.52-2.339-.52v-.683a3.27 3.27 0 0 0 1.403-2.683v-.936a3.276 3.276 0 0 0-2.806-3.236v-1.592l4.106-1.643zm-6.913 7.407v-.936c0-1.289 1.05-2.338 2.339-2.338 1.29 0 2.339 1.049 2.339 2.338v.936c0 1.29-1.05 2.339-2.339 2.339a2.341 2.341 0 0 1-2.339-2.34zm2.339 3.274c.325 0 .64-.049.936-.138v.477c-.116.18-.439.597-.936.597-.498 0-.82-.42-.935-.597v-.477c.296.089.61.138.935.138zm-5.145 2.904c0-.663.452-1.226 1.099-1.37l2.429-.54c.267.354.799.877 1.617.877s1.35-.523 1.617-.877l1.366.304a2.32 2.32 0 0 0-.644 1.606v3.644h-7.484V24.42zm27.129 3.644H62.58V24.42c0-.621-.244-1.185-.645-1.606l1.366-.304c.268.354.8.877 1.618.877.818 0 1.35-.523 1.617-.877l2.43.54a1.395 1.395 0 0 1 1.098 1.37v3.644z"/>
    </g>
    <defs>
        <clipPath id="a">
            <path fill="#fff" d="M0 0h29v29H0z" transform="translate(42)"/>
        </clipPath>
    </defs>
</svg>
