<svg xmlns="http://www.w3.org/2000/svg" width="150" height="29" fill="none" viewBox="0 0 150 29">
    <path fill="#fff" d="M3.64 19.21c-.663 0-1.283-.15-1.862-.448a2.506 2.506 0 0 1-.658-.462c-.13.215-.294.406-.49.574a5.3 5.3 0 0 1-.28.196H0v-2.66h.56c.14.457.336.868.588 1.232.57.812 1.307 1.218 2.212 1.218.532 0 .957-.159 1.274-.476.317-.317.476-.742.476-1.274a1.32 1.32 0 0 0-.28-.826 2.768 2.768 0 0 0-.672-.644 17.45 17.45 0 0 0-1.134-.7 15.07 15.07 0 0 1-1.498-.938c-.383-.28-.71-.63-.98-1.05-.27-.43-.406-.933-.406-1.512 0-.457.126-.868.378-1.232.261-.373.649-.667 1.162-.882.513-.224 1.143-.336 1.89-.336.541 0 1.083.154 1.624.462.205.112.41.261.616.448.159-.243.322-.434.49-.574.168-.121.261-.187.28-.196h.35v2.66h-.56a4.12 4.12 0 0 0-.546-1.218 3.031 3.031 0 0 0-.84-.882 1.9 1.9 0 0 0-1.134-.35c-.364 0-.677.145-.938.434-.261.29-.392.658-.392 1.106 0 .345.098.658.294.938.205.27.453.509.742.714.299.205.7.453 1.204.742.588.336 1.064.635 1.428.896.364.261.672.588.924.98.252.383.378.826.378 1.33 0 .504-.145.966-.434 1.386-.29.41-.723.737-1.302.98-.579.243-1.283.364-2.114.364zm9.586 0c-1.493 0-2.66-.443-3.5-1.33-.84-.887-1.26-2.147-1.26-3.78 0-1.073.182-1.993.546-2.758.374-.775.892-1.358 1.554-1.75.672-.401 1.447-.602 2.324-.602.532 0 1.069.154 1.61.462.206.112.41.261.616.448.159-.243.322-.434.49-.574.168-.121.261-.187.28-.196h.35v2.66h-.56a4.123 4.123 0 0 0-.546-1.218 3.031 3.031 0 0 0-.84-.882 1.901 1.901 0 0 0-1.134-.35c-.644 0-1.18.373-1.61 1.12-.42.747-.63 1.96-.63 3.64 0 1.708.229 2.93.686 3.668.467.728 1.101 1.092 1.904 1.092.439 0 .854-.121 1.246-.364.401-.252.723-.583.966-.994a2.45 2.45 0 0 0 .378-1.302h.35c0 .532-.145 1.031-.434 1.498-.28.457-.667.826-1.162 1.106a3.277 3.277 0 0 1-1.624.406zm4.416-.42l.84-.21V9.62l-.84-.21V9.2h3.71c1.586 0 2.73.243 3.43.728.7.476 1.05 1.143 1.05 2.002 0 .579-.154 1.05-.462 1.414-.308.355-.705.62-1.19.798a4.771 4.771 0 0 1-1.638.308v.07c.345.019.648.07.91.154.653.205 1.096.574 1.33 1.106l1.26 2.8.7.21V19h-1.96c-.766 0-1.326-.397-1.68-1.19l-1.4-3.15h-.91v3.92l.98.21V19h-4.13v-.21zm3.71-4.48c.653 0 1.166-.205 1.54-.616.373-.41.56-.999.56-1.764s-.187-1.353-.56-1.764c-.374-.41-.887-.616-1.54-.616h-.56v4.76h.56zm10.436 4.9c-.915 0-1.718-.196-2.408-.588-.682-.401-1.209-.985-1.582-1.75-.374-.765-.56-1.69-.56-2.772 0-1.083.186-2.007.56-2.772.373-.765.9-1.344 1.582-1.736.69-.401 1.493-.602 2.408-.602.914 0 1.712.2 2.394.602.69.392 1.222.97 1.596 1.736.373.765.56 1.69.56 2.772 0 1.083-.187 2.007-.56 2.772-.374.765-.906 1.349-1.596 1.75-.682.392-1.48.588-2.394.588zm0-.28c.364 0 .7-.154 1.008-.462.317-.308.578-.821.784-1.54.205-.719.308-1.661.308-2.828 0-1.167-.103-2.11-.308-2.828-.206-.719-.467-1.232-.784-1.54-.308-.308-.644-.462-1.008-.462s-.705.154-1.022.462c-.308.308-.565.821-.77 1.54-.206.719-.308 1.661-.308 2.828 0 1.167.102 2.11.308 2.828.205.719.462 1.232.77 1.54.317.308.658.462 1.022.462zm5.883-.14l.84-.21V9.62l-.84-.21V9.2h3.99v.21l-.84.21v9.03h3.01c0-.588.15-1.134.448-1.638a1.98 1.98 0 0 1 .462-.532h.42V19h-7.49v-.21zm8.545 0l.84-.21V9.62l-.84-.21V9.2h3.99v.21l-.84.21v9.03h3.01c0-.588.15-1.134.448-1.638.13-.215.285-.392.462-.532h.42V19h-7.49v-.21zm12.469 0l.84-.21V9.62l-.84-.21V9.2h3.57c1.67 0 2.949.43 3.836 1.288.896.859 1.344 2.063 1.344 3.612 0 1.55-.448 2.753-1.344 3.612-.887.859-2.166 1.288-3.836 1.288h-3.57v-.21zm3.57-.14c.868 0 1.54-.35 2.016-1.05.476-.71.714-1.876.714-3.5s-.238-2.786-.714-3.486c-.476-.71-1.148-1.064-2.016-1.064h-.42v9.1h.42zm10.917.56c-.914 0-1.717-.196-2.408-.588-.68-.401-1.208-.985-1.582-1.75-.373-.765-.56-1.69-.56-2.772 0-1.083.187-2.007.56-2.772.374-.765.901-1.344 1.582-1.736.691-.401 1.494-.602 2.408-.602.915 0 1.713.2 2.394.602.691.392 1.223.97 1.596 1.736.374.765.56 1.69.56 2.772 0 1.083-.186 2.007-.56 2.772-.373.765-.905 1.349-1.596 1.75-.68.392-1.479.588-2.394.588zm0-.28c.364 0 .7-.154 1.008-.462.318-.308.58-.821.784-1.54.206-.719.308-1.661.308-2.828 0-1.167-.102-2.11-.308-2.828-.205-.719-.466-1.232-.784-1.54-.308-.308-.644-.462-1.008-.462s-.704.154-1.022.462c-.308.308-.564.821-.77 1.54-.205.719-.308 1.661-.308 2.828 0 1.167.103 2.11.308 2.828.206.719.462 1.232.77 1.54.318.308.658.462 1.022.462zm5.4-9.38l-.77-.14V9.2h1.68c.495 0 .9.112 1.218.336.318.224.542.509.672.854l2.114 5.39 1.232-3.612-1.036-2.618-.77-.14V9.2h1.68c.495 0 .896.112 1.204.336.308.215.537.5.686.854l2.114 5.39 2.016-5.95-1.05-.42V9.2h2.59v.21l-1.12.42-3.15 9.31h-.42l-2.52-6.398-2.17 6.398h-.42l-3.78-9.59zm15.265 2.03v6.79l1.12.42V19h-2.66v-.21l1.12-.42V9.69l-.98-.28V9.2h1.47c.495 0 .882.089 1.162.266.28.177.546.415.798.714l4.48 5.25v-5.6l-1.12-.42V9.2h2.66v.21l-1.12.42v9.38h-.42l-6.51-7.63z"/>
    <circle cx="135.01" cy="14.5" r="13.75" stroke="#E3B873" stroke-width="1.5"/>
    <path stroke="#E3B873" stroke-width="1.5" d="M139.231 13.127l-4.313 4.282-4.313-4.282"/>
</svg>
