<svg xmlns="http://www.w3.org/2000/svg" width="110" height="110" fill="none" viewBox="0 0 110 110">
    <path fill="#E3B873" d="M20 15h70v70H20z" filter="url(#a)"/>
    <path fill="#fff" stroke="#fff" d="M62.63 30.924l-.175.969a20.083 20.083 0 0 1 7.885 5.354 20.034 20.034 0 0 1 5.183 13.465.144.144 0 1 1-.289 0c0-9.896-7.23-18.188-16.936-19.582l-.57-.082v1.867c0 .08-.065.145-.145.145h-4.271a.145.145 0 0 1-.145-.144V31.047l-.571.083C42.89 32.524 35.66 40.816 35.66 50.712a.145.145 0 1 1-.29 0c0-4.988 1.842-9.769 5.185-13.465a20.077 20.077 0 0 1 7.884-5.354l-.174-.968h-8.299l-.114.343a1.572 1.572 0 0 1-1.49 1.08 1.57 1.57 0 0 1-1.568-1.568 1.57 1.57 0 0 1 1.569-1.568c.692 0 1.283.452 1.49 1.08l.112.344h13.202v-1.991c0-.08.065-.145.145-.145h4.27c.08 0 .145.064.145.145v1.99H70.93l.113-.343a1.571 1.571 0 0 1 1.49-1.08A1.57 1.57 0 0 1 74.1 30.78a1.57 1.57 0 0 1-1.569 1.568 1.571 1.571 0 0 1-1.49-1.08l-.112-.344H62.629zm-9.174 1.347v.5h3.982v-3.982h-3.982v3.482zm20.355-1.491a1.28 1.28 0 1 0-2.56.002 1.28 1.28 0 0 0 2.56-.002zm-36.728 0a1.28 1.28 0 1 0 2.56-.002 1.28 1.28 0 0 0-2.56.002z"/>
    <mask id="b" fill="#fff">
        <path d="M57.434 35.449a.644.644 0 0 0-.563-.33h-2.848a.644.644 0 0 0-.562.33l-8.543 15.305a.646.646 0 0 0-.081.314v.712c0 .121.034.24.1.344l3.646 5.773h-2.39a.644.644 0 1 0 0 1.29h.067v2.202c0 .356.289.645.645.645h.779v2.203c0 .356.288.645.644.645h.78v6.473c0 .356.288.645.644.645h11.39a.645.645 0 0 0 .645-.645v-6.474h.779a.645.645 0 0 0 .644-.644v-2.203h.78a.644.644 0 0 0 .644-.645v-2.203h.067a.645.645 0 0 0 0-1.289h-.71-.002-1.678l3.647-5.773a.644.644 0 0 0 .1-.344v-.712a.643.643 0 0 0-.082-.314l-8.542-15.305zM55.447 49.22a.78.78 0 1 1-.001 1.56.78.78 0 0 1 .001-1.56zm6.474 14.371H54.85a.645.645 0 0 0 0 1.29h5.649v1.557h-.78a.644.644 0 1 0 0 1.29h.78v2.982H50.396v-2.982h.779a.645.645 0 0 0 0-1.29h-.78v-1.558h1.7a.644.644 0 1 0 0-1.289h-3.123v-1.558H61.92v1.558zm1.424-2.847H47.549v-1.558h15.796v1.558zm1.424-9.152l-1.285 2.033h-1.63a.645.645 0 0 0 0 1.29h.816l-1.884 2.981h-4.694v-1.49a.644.644 0 1 0-1.29 0v1.49h-4.695l-1.883-2.982h.816a.644.644 0 1 0 0-1.289h-1.63l-1.284-2.033v-.358l8.276-14.828h.4v11.628A2.072 2.072 0 0 0 53.38 50a2.07 2.07 0 0 0 2.068 2.068 2.07 2.07 0 0 0 2.069-2.069c0-.915-.599-1.693-1.424-1.964V36.407h.4l8.277 14.828v.358z"/>
    </mask>
    <path fill="#fff" stroke="#fff" stroke-width="2" d="M57.434 35.449a.644.644 0 0 0-.563-.33h-2.848a.644.644 0 0 0-.562.33l-8.543 15.305a.646.646 0 0 0-.081.314v.712c0 .121.034.24.1.344l3.646 5.773h-2.39a.644.644 0 1 0 0 1.29h.067v2.202c0 .356.289.645.645.645h.779v2.203c0 .356.288.645.644.645h.78v6.473c0 .356.288.645.644.645h11.39a.645.645 0 0 0 .645-.645v-6.474h.779a.645.645 0 0 0 .644-.644v-2.203h.78a.644.644 0 0 0 .644-.645v-2.203h.067a.645.645 0 0 0 0-1.289h-.71-.002-1.678l3.647-5.773a.644.644 0 0 0 .1-.344v-.712a.643.643 0 0 0-.082-.314l-8.542-15.305zM55.447 49.22a.78.78 0 1 1-.001 1.56.78.78 0 0 1 .001-1.56zm6.474 14.371H54.85a.645.645 0 0 0 0 1.29h5.649v1.557h-.78a.644.644 0 1 0 0 1.29h.78v2.982H50.396v-2.982h.779a.645.645 0 0 0 0-1.29h-.78v-1.558h1.7a.644.644 0 1 0 0-1.289h-3.123v-1.558H61.92v1.558zm1.424-2.847H47.549v-1.558h15.796v1.558zm1.424-9.152l-1.285 2.033h-1.63a.645.645 0 0 0 0 1.29h.816l-1.884 2.981h-4.694v-1.49a.644.644 0 1 0-1.29 0v1.49h-4.695l-1.883-2.982h.816a.644.644 0 1 0 0-1.289h-1.63l-1.284-2.033v-.358l8.276-14.828h.4v11.628A2.072 2.072 0 0 0 53.38 50a2.07 2.07 0 0 0 2.068 2.068 2.07 2.07 0 0 0 2.069-2.069c0-.915-.599-1.693-1.424-1.964V36.407h.4l8.277 14.828v.358z" mask="url(#b)"/>
    <defs>
        <filter id="a" width="110" height="110" x="0" y="0" color-interpolation-filters="sRGB" filterUnits="userSpaceOnUse">
            <feFlood flood-opacity="0" result="BackgroundImageFix"/>
            <feColorMatrix in="SourceAlpha" values="0 0 0 0 0 0 0 0 0 0 0 0 0 0 0 0 0 0 127 0"/>
            <feOffset dy="5"/>
            <feGaussianBlur stdDeviation="10"/>
            <feColorMatrix values="0 0 0 0 0.890196 0 0 0 0 0.721569 0 0 0 0 0.45098 0 0 0 0.5 0"/>
            <feBlend in2="BackgroundImageFix" result="effect1_dropShadow"/>
            <feBlend in="SourceGraphic" in2="effect1_dropShadow" result="shape"/>
        </filter>
    </defs>
</svg>
